<svg id="visual" viewBox="0 0 900 600" width="2000" height="" xmlns="http://www.w3.org/2000/svg" xmlns:xlink="http://www.w3.org/1999/xlink" version="1.1"><rect x="0" y="0" width="900" height="600" fill="#ffffff"></rect><defs><linearGradient id="grad1_0" x1="33.3%" y1="0%" x2="100%" y2="100%"><stop offset="20%" stop-color="#ffffff" stop-opacity="1"></stop><stop offset="80%" stop-color="#ffffff" stop-opacity="1"></stop></linearGradient></defs><defs><linearGradient id="grad2_0" x1="0%" y1="0%" x2="66.7%" y2="100%"><stop offset="20%" stop-color="#ffffff" stop-opacity="1"></stop><stop offset="80%" stop-color="#ffffff" stop-opacity="1"></stop></linearGradient></defs><g transform="translate(900, 0)"><path d="M0 324.5C-42.5 320.3 -85 316.1 -124.2 299.8C-163.4 283.5 -199.4 255.2 -221.3 221.3C-243.3 187.4 -251.2 148 -266.1 110.2C-280.9 72.4 -302.7 36.2 -324.5 0L0 0Z" fill="#F7770F"></path></g><g transform="translate(0, 600)"><path d="M0 -324.5C34.8 -297.6 69.7 -270.7 105.2 -254.1C140.8 -237.4 177 -231.1 212.1 -212.1C247.3 -193.2 281.3 -161.6 299.8 -124.2C318.3 -86.7 321.4 -43.4 324.5 0L0 0Z" fill="#F7770F"></path></g></svg>