<svg id="visual" viewBox="0 0 900 600" width="900" height="600" xmlns="http://www.w3.org/2000/svg" xmlns:xlink="http://www.w3.org/1999/xlink" version="1.1"><rect x="0" y="0" width="900" height="600" fill="#001220"></rect><path d="M0 374L16.7 372C33.3 370 66.7 366 100 366.8C133.3 367.7 166.7 373.3 200 388.2C233.3 403 266.7 427 300 424.8C333.3 422.7 366.7 394.3 400 393.2C433.3 392 466.7 418 500 422.3C533.3 426.7 566.7 409.3 600 406.3C633.3 403.3 666.7 414.7 700 419.2C733.3 423.7 766.7 421.3 800 414.3C833.3 407.3 866.7 395.7 883.3 389.8L900 384L900 601L883.3 601C866.7 601 833.3 601 800 601C766.7 601 733.3 601 700 601C666.7 601 633.3 601 600 601C566.7 601 533.3 601 500 601C466.7 601 433.3 601 400 601C366.7 601 333.3 601 300 601C266.7 601 233.3 601 200 601C166.7 601 133.3 601 100 601C66.7 601 33.3 601 16.7 601L0 601Z" fill="#fa7268"></path><path d="M0 484L16.7 470.8C33.3 457.7 66.7 431.3 100 420C133.3 408.7 166.7 412.3 200 415.2C233.3 418 266.7 420 300 427.3C333.3 434.7 366.7 447.3 400 458.3C433.3 469.3 466.7 478.7 500 479.7C533.3 480.7 566.7 473.3 600 466.8C633.3 460.3 666.7 454.7 700 448.7C733.3 442.7 766.7 436.3 800 436.8C833.3 437.3 866.7 444.7 883.3 448.3L900 452L900 601L883.3 601C866.7 601 833.3 601 800 601C766.7 601 733.3 601 700 601C666.7 601 633.3 601 600 601C566.7 601 533.3 601 500 601C466.7 601 433.3 601 400 601C366.7 601 333.3 601 300 601C266.7 601 233.3 601 200 601C166.7 601 133.3 601 100 601C66.7 601 33.3 601 16.7 601L0 601Z" fill="#eb5967"></path><path d="M0 496L16.7 499.2C33.3 502.3 66.7 508.7 100 507.5C133.3 506.3 166.7 497.7 200 492.3C233.3 487 266.7 485 300 487.5C333.3 490 366.7 497 400 502.3C433.3 507.7 466.7 511.3 500 512.8C533.3 514.3 566.7 513.7 600 504.3C633.3 495 666.7 477 700 469.2C733.3 461.3 766.7 463.7 800 472.5C833.3 481.3 866.7 496.7 883.3 504.3L900 512L900 601L883.3 601C866.7 601 833.3 601 800 601C766.7 601 733.3 601 700 601C666.7 601 633.3 601 600 601C566.7 601 533.3 601 500 601C466.7 601 433.3 601 400 601C366.7 601 333.3 601 300 601C266.7 601 233.3 601 200 601C166.7 601 133.3 601 100 601C66.7 601 33.3 601 16.7 601L0 601Z" fill="#da3f67"></path><path d="M0 566L16.7 566C33.3 566 66.7 566 100 562C133.3 558 166.7 550 200 542.5C233.3 535 266.7 528 300 526.2C333.3 524.3 366.7 527.7 400 531.8C433.3 536 466.7 541 500 545C533.3 549 566.7 552 600 548.7C633.3 545.3 666.7 535.7 700 532C733.3 528.3 766.7 530.7 800 528.8C833.3 527 866.7 521 883.3 518L900 515L900 601L883.3 601C866.7 601 833.3 601 800 601C766.7 601 733.3 601 700 601C666.7 601 633.3 601 600 601C566.7 601 533.3 601 500 601C466.7 601 433.3 601 400 601C366.7 601 333.3 601 300 601C266.7 601 233.3 601 200 601C166.7 601 133.3 601 100 601C66.7 601 33.3 601 16.7 601L0 601Z" fill="#c62368"></path></svg>